<svg version="1.2" xmlns="http://www.w3.org/2000/svg" viewBox="0 0 595 148" width="595" height="148">
	<title>logo</title>
	<style>
		.s0 { fill: #fefefe } 
		.s1 { fill: #a6a9ab } 
		.s2 { fill: #434344 } 
		.s3 { fill: #007e3c } 
	</style>
	<g id="&lt;Group&gt;">
		<g id="&lt;Group&gt;">
			<path id="&lt;Compound Path&gt;" fill-rule="evenodd" class="s0" d="m141 7.4v133.6h-133.6v-133.6zm-49.5 40c1.9 0.5 3.4 2 3.9 3.9h36.2c-7.1-17.5-21.8-31.1-40.1-36.4zm-42.6 47.5c-1.9-0.4-3.4-1.9-3.9-3.8h-30.1c5 17.6 17.6 32 34 39.4zm0-77c-21.5 9.6-36.4 31.2-36.4 56.3 0 4.9 0.6 9.7 1.7 14.2h30.8c0.5-1.9 2-3.4 3.9-3.8zm40-3.7c-4.7-1.1-9.6-1.8-14.6-1.8-8.1 0-15.7 1.6-22.7 4.4v67.9c2.2 0.6 3.8 2.6 3.8 5.1 0 2.4-1.6 4.4-3.8 5v36.9c7 2.7 14.6 4.3 22.7 4.3 5 0 9.9-0.6 14.6-1.8v-76.5c-2.3-0.6-3.9-2.7-3.9-5.1 0-2.4 1.6-4.5 3.9-5.1zm47.1 60c0-7.1-1.2-13.9-3.4-20.3h-37.2c-0.5 1.9-2 3.4-3.9 3.8v75.8c25.7-7.5 44.5-31.2 44.5-59.3z"/>
			<path id="&lt;Compound Path&gt;" fill-rule="evenodd" class="s1" d="m148.4 0v148.4h-148.4v-148.4zm-141 7.4v133.6h133.6v-133.6z"/>
			<path id="&lt;Path&gt;" class="s1" d="m132.5 53.9h-37.2c-0.5 1.9-1.9 3.4-3.8 3.8v75.8c25.7-7.5 44.5-31.2 44.5-59.3 0-7.1-1.3-13.9-3.5-20.3z"/>
			<path id="&lt;Path&gt;" class="s2" d="m95.3 51.2h36.2c-7-17.4-21.8-31-40-36.3v32.5c1.9 0.5 3.4 1.9 3.8 3.8z"/>
			<path id="&lt;Path&gt;" class="s1" d="m48.9 84.6v-66.7c-21.5 9.6-36.5 31.2-36.5 56.3 0 4.9 0.6 9.7 1.7 14.2h30.8c0.5-1.9 2-3.4 4-3.8z"/>
			<path id="&lt;Path&gt;" class="s2" d="m44.9 91.1h-30.1c5 17.6 17.6 32 34.1 39.4v-35.6c-2-0.4-3.5-1.9-4-3.8z"/>
			<path id="&lt;Path&gt;" class="s3" d="m88.8 47.5v-33.3c-4.7-1.2-9.6-1.8-14.6-1.8-8 0-15.7 1.6-22.7 4.3v68c2.2 0.6 3.9 2.6 3.9 5 0 2.5-1.7 4.5-3.9 5.1v36.8c7 2.8 14.7 4.4 22.7 4.4 5 0 9.9-0.7 14.6-1.8v-76.5c-2.2-0.7-3.9-2.7-3.9-5.1 0-2.5 1.7-4.5 3.9-5.1z"/>
		</g>
		<g id="&lt;Group&gt;">
			<g id="&lt;Group&gt;">
				<path id="&lt;Compound Path&gt;" class="s3" d="m173.3 19.8c0-0.6 0.6-1.3 1.3-1.3h6.3c0.7 0 1.4 0.7 1.4 1.3v17.7h9.3l11-17.7c0.4-0.6 1.3-1.3 2-1.3h7.4c0.6 0 1 0.7 0.6 1.3l-13.3 21.4 14.7 22.6c0.4 0.7 0 1.4-0.7 1.4h-7.4c-0.6 0-1.5-0.7-2-1.4l-12.3-19h-9.3v19c0 0.7-0.7 1.4-1.4 1.4h-6.3c-0.7 0-1.3-0.7-1.3-1.4z"/>
				<path id="&lt;Compound Path&gt;" fill-rule="evenodd" class="s3" d="m257.8 52.8c0 8-5.3 13.4-14.6 13.4h-11.7c-9.4 0-14.7-5.4-14.7-13.4v-22c0-8 5.3-13.3 14.7-13.3h11.7c9.3 0 14.6 5.3 14.6 13.3zm-16-28h-9q-7 0-7 7v20q0 7 7 7h9q7 0 7-7v-20q0-7-7-7z"/>
				<path id="&lt;Compound Path&gt;" fill-rule="evenodd" class="s3" d="m305.3 36.8c0 7-6 13-15.3 13h-15v14c0 0.7-0.7 1.4-1.3 1.4h-6.4c-0.7 0-1.3-0.7-1.3-1.4v-44c0-0.6 0.6-1.3 1.3-1.3h22.7c9.3 0 15.3 6 15.3 13zm-16.6 5.7c4.6 0 7.6-3 7.6-6.7v-3.3c0-3.7-3-6.7-7.6-6.7h-13.7v16.7z"/>
				<path id="&lt;Compound Path&gt;" fill-rule="evenodd" class="s3" d="m321.5 18.5h8.6c0.7 0 1.4 0.7 1.7 1.3l17 44c0.3 0.7-0.3 1.4-1 1.4h-6.7c-1 0-1.8-0.7-2-1.4l-3-8.6h-20.6l-3 8.6c-0.3 0.7-1 1.4-2 1.4h-6.7c-0.7 0-1.3-0.7-1-1.4l17-44c0.3-0.6 1-1.3 1.7-1.3zm-3 29.3h14.6l-7.1-19.3h-0.4z"/>
				<path id="&lt;Compound Path&gt;" class="s3" d="m397.8 18.5c0.7 0 1.4 0.7 1.4 1.3v44c0 0.7-0.7 1.4-1.4 1.4h-6.3c-0.7 0-1.4-0.7-1.4-1.4v-38h-15.6l-3 24c-1.4 10.7-7 16.4-15.4 16.4-2 0-3.3-0.4-3.3-0.4-0.7-0.1-1.3-0.6-1.3-1.3v-4.3c0-0.7 0.6-1.4 1.3-1.4 0 0 1.3 0.4 2.7 0.4 3 0 6.1-3 7-9.4l4-30c0-0.6 0.6-1.3 1.3-1.3z"/>
				<path id="&lt;Compound Path&gt;" fill-rule="evenodd" class="s3" d="m422.4 18.5h8.6c0.7 0 1.4 0.7 1.7 1.3l17 44c0.3 0.7-0.3 1.4-1 1.4h-6.6c-1 0-1.8-0.7-2-1.4l-3-8.6h-20.7l-3 8.6c-0.3 0.7-1 1.4-2 1.4h-6.7c-0.7 0-1.3-0.7-1-1.4l17-44c0.3-0.6 1-1.3 1.7-1.3zm-3 29.3h14.6l-7.1-19.3h-0.4z"/>
				<path id="&lt;Compound Path&gt;" class="s3" d="m486 32.2l-21 31.6c-0.4 0.7-1 1.4-2 1.4h-7c-0.7 0-1.4-0.7-1.4-1.4v-44c0-0.6 0.7-1.3 1.4-1.3h6.3c0.7 0 1.3 0.7 1.3 1.3v31.7h0.4l21-31.7c0.4-0.6 1-1.3 2-1.3h7c0.7 0 1.3 0.7 1.3 1.3v44c0 0.7-0.6 1.4-1.3 1.4h-6.3c-0.7 0-1.4-0.7-1.4-1.4v-31.6zm-12.3-24.4h2.7c2 0 3.3-1.3 3.3-3.3v-1.7c0-0.6 0.7-1.3 1.3-1.3h5.4c0.6 0 1.3 0.7 1.3 1.3v1.7c0 6-4 10-10.3 10h-4.7c-6.4 0-10.4-4-10.4-10v-1.7c0-0.6 0.7-1.3 1.4-1.3h5.3c0.7 0 1.4 0.7 1.4 1.3v1.7c0 2 1.3 3.3 3.3 3.3z"/>
				<path id="&lt;Compound Path&gt;" class="s3" d="m511.9 45.2v18.6c0 0.7-0.7 1.4-1.3 1.4h-6.4c-0.6 0-1.3-0.7-1.3-1.4v-44c0-0.6 0.7-1.3 1.3-1.3h6.4c0.6 0 1.3 0.7 1.3 1.3v18h22.4v-18c0-0.6 0.6-1.3 1.3-1.3h6.3c0.7 0 1.4 0.7 1.4 1.3v44c0 0.7-0.7 1.4-1.4 1.4h-6.3c-0.7 0-1.3-0.7-1.3-1.4v-18.6z"/>
				<path id="&lt;Compound Path&gt;" fill-rule="evenodd" class="s3" d="m567.6 18.5h8.7c0.6 0 1.4 0.7 1.6 1.3l17 44c0.3 0.7-0.3 1.4-1 1.4h-6.6c-1 0-1.8-0.7-2-1.4l-3-8.6h-20.7l-3 8.6c-0.3 0.7-1 1.4-2 1.4h-6.7c-0.7 0-1.3-0.7-1-1.4l17-44c0.3-0.6 1-1.3 1.7-1.3zm-3 29.3h14.7l-7.2-19.3h-0.4z"/>
			</g>
			<g id="&lt;Group&gt;">
				<path id="&lt;Compound Path&gt;" class="s2" d="m193.7 132.9c0 0.5-0.5 1.1-1.1 1.1h-5.2c-0.6 0-1.1-0.6-1.1-1.1v-31.6h-11.9c-0.6 0-1.1-0.5-1.1-1.1v-3.8c0-0.6 0.5-1.1 1.1-1.1h31.2c0.6 0 1.1 0.5 1.1 1.1v3.8c0 0.6-0.5 1.1-1.1 1.1h-11.9z"/>
				<path id="&lt;Compound Path&gt;" class="s2" d="m242.1 127.9c0.6 0 1.1 0.5 1.1 1.1v3.9c0 0.5-0.5 1.1-1.1 1.1h-29.2c-0.5 0-0.9-0.4-0.9-1v-36.6c0-0.6 0.5-1.1 1.1-1.1h28.5c0.5 0 1.1 0.5 1.1 1.1v3.8c0 0.6-0.6 1.1-1.1 1.1h-22.1v10h15.5c0.5 0 1.1 0.6 1.1 1.1v3.9c0 0.5-0.6 1.1-1.1 1.1h-15.5v10.5z"/>
				<path id="&lt;Compound Path&gt;" class="s2" d="m255.5 132.9c-0.4 0.5-0.9 1.1-1.7 1.1h-6.4c-0.5 0-0.9-0.6-0.5-1.1l13.3-18.8-12.2-17.7c-0.3-0.6 0-1.1 0.6-1.1h6.3c0.8 0 1.3 0.5 1.7 1.1l8.6 12.4h0.2l8.6-12.4c0.4-0.6 0.8-1.1 1.7-1.1h6.3c0.6 0 0.9 0.5 0.6 1.1l-12.2 17.7 13.3 18.8c0.4 0.5 0 1.1-0.6 1.1h-6.3c-0.9 0-1.3-0.6-1.7-1.1l-9.7-13.9h-0.2z"/>
				<path id="&lt;Compound Path&gt;" class="s2" d="m295 117.4v15.5c0 0.5-0.6 1.1-1.1 1.1h-5.3c-0.5 0-1.1-0.6-1.1-1.1v-36.5c0-0.6 0.6-1.1 1.1-1.1h5.3c0.5 0 1.1 0.5 1.1 1.1v14.9h18.5v-14.9c0-0.6 0.6-1.1 1.1-1.1h5.3c0.5 0 1.1 0.5 1.1 1.1v36.5c0 0.5-0.6 1.1-1.1 1.1h-5.3c-0.5 0-1.1-0.6-1.1-1.1v-15.5z"/>
				<path id="&lt;Compound Path&gt;" fill-rule="evenodd" class="s2" d="m361.7 123.7c0 6.7-4.4 11.1-12.1 11.1h-9.7c-7.7 0-12.2-4.4-12.2-11.1v-18.2c0-6.6 4.5-11.1 12.2-11.1h9.7c7.7 0 12.1 4.5 12.1 11.1zm-13.2-23.2h-7.5q-5.8 0-5.8 5.8v16.6q0 5.8 5.8 5.8h7.5q5.8 0 5.8-5.8v-16.6q0-5.8-5.8-5.8z"/>
				<path id="&lt;Compound Path&gt;" class="s2" d="m403.5 95.3c0.5 0 1.1 0.5 1.1 1.1v36.5c0 0.5-0.6 1.1-1.1 1.1h-5.3c-0.5 0-1.1-0.6-1.1-1.1v-31.6h-13l-2.5 20c-1.1 8.8-5.8 13.5-12.7 13.5-1.6 0-2.8-0.3-2.8-0.3-0.5-0.1-1.1-0.5-1.1-1.1v-3.6c0-0.5 0.6-1.1 1.1-1.1 0 0 1.2 0.3 2.3 0.3 2.4 0 5-2.5 5.8-7.7l3.3-24.9c0-0.6 0.5-1.1 1.1-1.1z"/>
				<path id="&lt;Compound Path&gt;" fill-rule="evenodd" class="s2" d="m444.8 123.7c0 6.7-4.4 11.1-12.2 11.1h-9.6c-7.8 0-12.2-4.4-12.2-11.1v-18.2c0-6.6 4.4-11.1 12.2-11.1h9.6c7.8 0 12.2 4.5 12.2 11.1zm-13.3-23.2h-7.4q-5.8 0-5.8 5.8v16.6q0 5.8 5.8 5.8h7.4q5.8 0 5.8-5.8v-16.6q0-5.8-5.8-5.8z"/>
				<path id="&lt;Compound Path&gt;" class="s2" d="m460.6 132.9c0 0.5-0.6 1.1-1.1 1.1h-5.3c-0.5 0-1.1-0.6-1.1-1.1v-36.5c0-0.6 0.6-1.1 1.1-1.1h26.9c0.5 0 1.1 0.5 1.1 1.1v3.8c0 0.6-0.6 1.1-1.1 1.1h-20.5z"/>
				<path id="&lt;Compound Path&gt;" class="s2" d="m513.1 106.6l-17.4 26.3c-0.3 0.5-0.8 1.1-1.6 1.1h-5.9c-0.5 0-1.1-0.6-1.1-1.1v-36.5c0-0.6 0.6-1.1 1.1-1.1h5.3c0.6 0 1.1 0.5 1.1 1.1v26.2h0.3l17.4-26.2c0.3-0.6 0.8-1.1 1.7-1.1h5.8c0.5 0 1.1 0.5 1.1 1.1v36.5c0 0.5-0.6 1.1-1.1 1.1h-5.3c-0.5 0-1.1-0.6-1.1-1.1v-26.3z"/>
				<path id="&lt;Compound Path&gt;" class="s2" d="m553.7 106.6l-17.4 26.3c-0.4 0.5-0.9 1.1-1.7 1.1h-5.8c-0.6 0-1.1-0.6-1.1-1.1v-36.5c0-0.6 0.5-1.1 1.1-1.1h5.3c0.5 0 1.1 0.5 1.1 1.1v26.2h0.2l17.5-26.2c0.3-0.6 0.8-1.1 1.6-1.1h5.8c0.6 0 1.1 0.5 1.1 1.1v36.5c0 0.5-0.5 1.1-1.1 1.1h-5.2c-0.6 0-1.1-0.6-1.1-1.1v-26.3z"/>
			</g>
		</g>
	</g>
</svg>